<?xml version="1.0" encoding="UTF-8"?>
<svg width="16px" height="16px" viewBox="0 0 16 16" version="1.1" xmlns="http://www.w3.org/2000/svg" xmlns:xlink="http://www.w3.org/1999/xlink">
    <title>审核</title>
    <g id="DEEP-LINK" stroke="none" stroke-width="1" fill="none" fill-rule="evenodd">
        <g id="审核" fill="#000000" fill-rule="nonzero">
            <rect id="Rectangle" opacity="0" x="0" y="0" width="16" height="16"></rect>
            <path d="M2.4,1.6 L12,1.6 L12,6.4 L13.6,6.4 L13.6,1.6 C13.6,0.7163444 12.8836556,0 12,0 L2.4,0 C1.5163444,0 0.8,0.7163444 0.8,1.6 L0.8,12.8 C0.8,13.2243464 0.968570945,13.6313126 1.26862915,13.9313708 C1.56868736,14.2314291 1.97565362,14.4 2.4,14.4 L7.2,14.4 L7.2,12.8 L2.4,12.8 L2.4,1.6 Z M4,4.8 L10.4,4.8 C10.8418278,4.8 11.2,4.4418278 11.2,4 C11.2,3.5581722 10.8418278,3.2 10.4,3.2 L4,3.2 C3.5581722,3.2 3.2,3.5581722 3.2,4 C3.2,4.4418278 3.5581722,4.8 4,4.8 L4,4.8 Z M4,8 L8.8,8 C9.2418278,8 9.6,7.6418278 9.6,7.2 C9.6,6.7581722 9.2418278,6.4 8.8,6.4 L4,6.4 C3.5581722,6.4 3.2,6.7581722 3.2,7.2 C3.2,7.6418278 3.5581722,8 4,8 Z M7.2,9.6 L4,9.6 C3.5581722,9.6 3.2,9.9581722 3.2,10.4 C3.2,10.8418278 3.5581722,11.2 4,11.2 L7.2,11.2 C7.6418278,11.2 8,10.8418278 8,10.4 C8,9.9581722 7.6418278,9.6 7.2,9.6 L7.2,9.6 Z M14.4,14.4 L9.6,14.4 C9.1581722,14.4 8.8,14.7581722 8.8,15.2 C8.8,15.6418278 9.1581722,16 9.6,16 L14.4,16 C14.8418278,16 15.2,15.6418278 15.2,15.2 C15.2,14.7581722 14.8418278,14.4 14.4,14.4 L14.4,14.4 Z M12.8,10.176 C13.2920713,9.89191633 13.5965705,9.3681777 13.6,8.8 C13.6,7.91634443 12.8836556,7.20000007 12,7.20000007 C11.1163444,7.20000007 10.4,7.91634443 10.4,8.8 C10.4034295,9.3681777 10.7079287,9.89191633 11.2,10.176 L11.2,11.2000001 L10,11.2000001 C9.3372583,11.2000001 8.8,11.7372583 8.8,12.4 C8.8,13.0627417 9.3372583,13.6 10,13.6 L14,13.6 C14.6627417,13.6 15.2,13.0627417 15.2,12.4 C15.2,11.7372583 14.6627417,11.2000001 14,11.2000001 L12.8,11.2000001 L12.8,10.176 Z" id="Shape"></path>
        </g>
    </g>
</svg>