<?xml version="1.0" encoding="UTF-8"?>
<svg width="16px" height="16px" viewBox="0 0 16 16" version="1.1" xmlns="http://www.w3.org/2000/svg" xmlns:xlink="http://www.w3.org/1999/xlink">
    <title>记录</title>
    <g id="财务管理" stroke="none" stroke-width="1" fill="none" fill-rule="evenodd">
        <g id="对账详情-修正" transform="translate(-33.000000, -246.000000)" fill="#000000" fill-rule="nonzero">
            <g id="记录" transform="translate(33.000000, 246.000000)">
                <rect id="Rectangle" opacity="0" x="0" y="0" width="16" height="16"></rect>
                <path d="M12.6552897,0.7499955 C12.6552897,0.335934984 12.3081574,0 11.8794334,0 C11.4506934,0 11.1035611,0.335919016 11.1035611,0.7499955 L11.1035611,2.25000248 C11.1035611,2.664063 11.4506934,3.00001397 11.8794334,3.00001397 C12.3081574,3.00001397 12.6552897,2.664063 12.6552897,2.25000248 L12.6552897,0.7499955 Z M8.77588028,0.7499955 C8.77588028,0.335934984 8.42822088,0 8.00002397,0 C7.57177914,0 7.2241357,0.335934984 7.2241357,0.7499955 L7.2241357,2.25000248 C7.2241357,2.664063 7.57179511,3.00001397 8.00002397,3.00001397 C8.42825283,3.00001397 8.77588028,2.664063 8.77588028,2.25000248 L8.77588028,0.7499955 Z M4.89647089,0.7499955 C4.89647089,0.335934984 4.54930666,0 4.12058262,0 C3.69187456,0 3.34471033,0.335934984 3.34471033,0.7499955 L3.34471033,2.25000248 C3.34471033,2.664063 3.69187456,3.00001397 4.12058262,3.00001397 C4.54930666,3.00001397 4.89647089,2.664063 4.89647089,2.25000248 L4.89647089,0.7499955 Z M14.7241866,1.49997505 L13.4311779,1.49997505 L13.4311779,2.24998653 C13.4311779,3.07860273 12.7363383,3.74999352 11.8794333,3.74999352 C11.0224964,3.74999352 10.3276728,3.07858677 10.3276728,2.24998653 L10.3276728,1.49997505 L9.55180048,1.49997505 L9.55180048,2.24998653 C9.55180048,3.07860273 8.85699281,3.74999352 8.00005589,3.74999352 C7.14311897,3.74999352 6.44829533,3.07858677 6.44829533,2.24998653 L6.44829534,1.49997505 L5.67239111,1.49997505 L5.67239111,2.24998653 C5.67239111,3.07860273 4.97806264,3.74999352 4.12064652,3.74999352 C3.26374155,3.74999352 2.56888595,3.07858677 2.56888595,2.24998653 L2.56888595,1.49997505 L1.27587728,1.49997505 C0.84715325,1.49997505 0.499989016,1.83592602 0.499989016,2.24998653 L0.499989016,15.2500045 C0.499989016,15.664081 0.84715325,16 1.27587728,16 L14.7241866,16 C15.1528627,16 15.499989,15.664081 15.499989,15.2500045 L15.499989,2.2500025 C15.499989,1.83594198 15.1528627,1.49997505 14.7241866,1.49997505 Z M4.77002606,13.6028992 C4.77002606,13.9543123 4.4800623,14.2388451 4.12325017,14.2388451 C3.76546367,14.2388451 3.47597911,13.9543123 3.47597911,13.6028992 L3.47597911,11.907762 C3.47597911,11.55686 3.76546367,11.2723272 4.12325017,11.2723272 C4.4800623,11.2723272 4.77002606,11.55686 4.77002606,11.907762 L4.77002606,13.6028992 Z M7.35810397,13.6028992 C7.35810397,13.9543123 7.06860344,14.2388451 6.71131211,14.2388451 C6.35352561,14.2388451 6.06405703,13.9543123 6.06405703,13.6028992 L6.06405703,10.2127208 C6.06405703,9.86180278 6.35352562,9.577238 6.71131211,9.577238 C7.06860344,9.577238 7.35810397,9.86180278 7.35810397,10.2127208 L7.35810397,13.6028992 Z M9.94618189,13.6028992 C9.94618189,13.9543123 9.65719248,14.2388451 9.29940598,14.2388451 C8.94211466,14.2388451 8.65263009,13.9543123 8.65263009,13.6028992 L8.65263009,8.51759961 C8.65263009,8.16618647 8.94211467,7.88163767 9.299406,7.88163767 C9.6571925,7.88163767 9.94618189,8.16618647 9.94618189,8.51759961 L9.94618189,13.6028992 Z M12.534755,13.6028992 C12.534755,13.9543123 12.2452864,14.2388451 11.8874999,14.2388451 C11.5306558,14.2388451 11.240724,13.9543123 11.240724,13.6028992 L11.240724,6.82204719 C11.240724,6.47114519 11.5306558,6.18658042 11.8874999,6.18658042 C12.2452704,6.18658042 12.534755,6.4711452 12.534755,6.82204719 L12.534755,13.6028992 Z" id="Shape"></path>
            </g>
        </g>
    </g>
</svg>