<?xml version="1.0" encoding="UTF-8"?>
<svg width="16px" height="16px" viewBox="0 0 16 16" version="1.1" xmlns="http://www.w3.org/2000/svg" xmlns:xlink="http://www.w3.org/1999/xlink">
    <title>工具</title>
    <g id="财务管理" stroke="none" stroke-width="1" fill="none" fill-rule="evenodd">
        <g id="财务列表" transform="translate(-33.000000, -430.000000)" fill="#111111" fill-rule="nonzero">
            <g id="编组-8备份-2-copy" transform="translate(33.000000, 419.000000)">
                <g id="工具" transform="translate(0.000000, 11.000000)">
                    <path d="M11.4408142,9.82161236 L9.78641232,9.82161236 L9.78641232,9.24081168 L6.15200809,9.24081168 L6.15200809,9.82161236 L4.49760616,9.82161236 L4.49760616,9.24081168 L0.238401208,9.24081168 L0.238401208,13.5704167 C0.238401208,14.8024182 1.24160238,15.8056193 2.47360381,15.8056193 L13.6320168,15.8056193 C14.8640182,15.8056193 15.8672194,14.8024182 15.8672194,13.5704167 L15.8672194,9.24081168 L11.4408142,9.24081168 L11.4408142,9.82161236 Z M13.6320168,2.68480406 L12.0128149,2.68480406 L12.0128149,1.44400261 C12.0128149,0.740001792 11.4408142,0.168001126 10.7368134,0.168001126 L5.36880718,0.168001126 C4.66480636,0.168001126 4.09280569,0.740001792 4.09280569,1.44400261 L4.09280569,2.68480406 L2.48240382,2.68480406 C1.25040239,2.68480406 0.247201219,3.68800522 0.247201219,4.92000666 L0.247201219,8.13201039 L4.50640617,8.13201039 L4.50640617,7.13760924 L6.15200809,7.13760924 L6.15200809,8.13201039 L9.79521233,8.13201039 L9.79521233,7.13760924 L11.4496143,7.13760924 L11.4496143,8.13201039 L15.8760194,8.13201039 L15.8760194,4.92880667 C15.8672194,3.69680523 14.8640182,2.68480406 13.6320168,2.68480406 Z M10.9128136,2.67600404 L5.19280697,2.67600404 L5.19280697,1.44400261 C5.19280697,1.3472025 5.27200707,1.26800241 5.36880718,1.26800241 L10.7368134,1.26800241 C10.8336135,1.26800241 10.9128136,1.3472025 10.9128136,1.44400261 L10.9128136,2.67600404 Z" id="形状"></path>
                </g>
            </g>
        </g>
    </g>
</svg>