<?xml version="1.0" encoding="UTF-8"?>
<svg width="20px" height="20px" viewBox="0 0 20 20" version="1.1" xmlns="http://www.w3.org/2000/svg" xmlns:xlink="http://www.w3.org/1999/xlink">
    <title>设置</title>
    <g id="财务管理" stroke="none" stroke-width="1" fill="none" fill-rule="evenodd">
        <g id="财务列表" transform="translate(-31.000000, -383.000000)" fill-rule="nonzero">
            <g id="编组-8备份-3" transform="translate(31.000000, 373.000000)">
                <g id="设置" transform="translate(0.000000, 10.000000)">
                    <rect id="矩形" fill="#000000" opacity="0" x="0" y="0" width="20" height="20"></rect>
                    <path d="M13.9648438,14.6933594 C13.3984375,15.1582031 12.7558594,15.5195312 12.0644531,15.7597656 L12.0644531,17.1191406 C12.0644531,17.6796875 11.6113281,18.1328125 11.0507813,18.1328125 L8.95507812,18.1328125 C8.39453125,18.1328125 7.94140625,17.6796875 7.94140625,17.1191406 L7.94140625,15.7597656 C7.25,15.5195312 6.60546875,15.1582031 6.04101562,14.6933594 L4.890625,15.3574219 C4.40625,15.6367187 3.78710938,15.4707031 3.50585937,14.9863281 L2.45898437,13.1699219 C2.1796875,12.6855469 2.34375,12.0664062 2.828125,11.7851562 L3.92382812,11.1523437 C3.78125,10.40625 3.78125,9.640625 3.92382812,8.89453125 L2.828125,8.26171875 C2.34375,7.98242187 2.17773437,7.36132812 2.45703125,6.87695312 L3.50390625,5.06054687 C3.78320312,4.57617187 4.40429688,4.41015625 4.88867188,4.68945312 L6.0390625,5.35351562 C6.60546875,4.88867187 7.24804687,4.52539062 7.94140625,4.28515625 L7.94140625,2.92773438 C7.94140625,2.3671875 8.39453125,1.9140625 8.95507812,1.9140625 L11.0507812,1.9140625 C11.6113281,1.9140625 12.0644531,2.3671875 12.0644531,2.92773438 L12.0644531,4.28710938 C12.765625,4.53125 13.40625,4.89453125 13.9648438,5.35351562 L15.1152344,4.68945312 C15.5996094,4.41015625 16.21875,4.57617187 16.5,5.06054687 L17.546875,6.87695312 C17.8261719,7.36132812 17.6601562,7.98046875 17.1757812,8.26171875 L16.0800781,8.89453125 C16.2226562,9.640625 16.2226562,10.40625 16.0800781,11.1523437 L17.1757812,11.7851562 C17.6601562,12.0644531 17.8261719,12.6855469 17.546875,13.1699219 L16.5,14.9863281 C16.2207031,15.4707031 15.5996094,15.6367187 15.1152344,15.3574219 L13.9648438,14.6933594 Z M10.0019531,13.0664062 C11.7089844,13.0664062 13.09375,11.7050781 13.09375,10.0253906 C13.09375,8.34570312 11.7089844,6.984375 10.0019531,6.984375 C8.29492188,6.984375 6.91015625,8.34570312 6.91015625,10.0253906 C6.91015625,11.7050781 8.29492188,13.0664062 10.0019531,13.0664062 Z" id="形状" fill="#111111"></path>
                </g>
            </g>
        </g>
    </g>
</svg>