<?xml version="1.0" encoding="UTF-8"?>
<svg width="16px" height="16px" viewBox="0 0 16 16" version="1.1" xmlns="http://www.w3.org/2000/svg" xmlns:xlink="http://www.w3.org/1999/xlink">
    <title>下载</title>
    <g id="财务管理" stroke="none" stroke-width="1" fill="none" fill-rule="evenodd">
        <g id="财务列表" transform="translate(-1012.000000, -81.000000)" fill-rule="nonzero">
            <g id="Courses-Copy" transform="translate(1000.000000, 71.000000)">
                <g id="下载" transform="translate(12.000000, 10.000000)">
                    <rect id="Rectangle" fill="#000000" opacity="0" x="0" y="0" width="16" height="16"></rect>
                    <path d="M12.8000469,6.33826563 C12.8000469,3.68732813 10.6509688,1.53842188 8.00003125,1.53842188 C5.34909375,1.53842188 3.20010937,3.68732813 3.20010937,6.33826563 C1.43284375,6.33826563 0.000109375,7.77092187 0.000109375,9.53828125 C0.000109375,11.3056406 1.43284375,12.7382969 3.20010937,12.7382969 L4.80010937,12.7382969 L4.80010937,11.4582813 L3.20010937,11.4582813 C2.1414375,11.4582813 1.28010937,10.5970313 1.28010937,9.53828125 C1.28010937,8.47951563 2.1414375,7.61826563 3.20010937,7.61826563 L4.48010937,7.61826563 L4.48010937,6.33826563 C4.48010937,4.39732813 6.05909375,2.81826563 8.00003125,2.81826563 C9.94098437,2.81826563 11.5200469,4.39732813 11.5200469,6.33826563 L11.5200469,7.61826563 L12.8000469,7.61826563 C13.8587969,7.61826563 14.7199062,8.47951563 14.7199062,9.53828125 C14.7199062,10.5970313 13.8587969,11.4582813 12.8000469,11.4582813 L11.2000469,11.4582813 L11.2000469,12.7382969 L12.8000469,12.7382969 C14.5670781,12.7382969 15.9999062,11.3056406 15.9999062,9.53828125 C15.9999062,7.77092187 14.5670781,6.33826563 12.8000469,6.33826563 Z" id="Path" fill="#758395"></path>
                    <polygon id="Path" fill="#758395" points="7.99051563 14.4615781 11.4480312 10.7425156 10.4411406 9.80501562 8.71004687 11.6678281 8.71004687 6.4096875 7.27004688 6.4096875 7.27004688 11.6670312 5.538875 9.80501562 4.53214063 10.7425156"></polygon>
                </g>
            </g>
        </g>
    </g>
</svg>