<?xml version="1.0" encoding="UTF-8"?>
<svg width="16px" height="16px" viewBox="0 0 16 16" version="1.1" xmlns="http://www.w3.org/2000/svg" xmlns:xlink="http://www.w3.org/1999/xlink">
    <title>上传</title>
    <g id="财务管理" stroke="none" stroke-width="1" fill="none" fill-rule="evenodd">
        <g id="财务列表" transform="translate(-872.000000, -81.000000)" fill="#758395" fill-rule="nonzero">
            <g id="Courses" transform="translate(860.000000, 71.000000)">
                <g id="上传" transform="translate(12.000000, 10.000000)">
                    <rect id="Rectangle" opacity="0" x="0" y="0" width="16" height="16"></rect>
                    <path d="M3.33333333,6.66666667 C2.93333333,6.66666667 2.66666666,6.4 2.66666666,6 C2.66666666,3.4 4.73333333,1.33333333 7.33333333,1.33333333 C9.33333333,1.33333333 11.1333333,2.66666666 11.8,4.6 C11.8666667,4.93333333 11.7333333,5.33333333 11.3333333,5.4 C11,5.53333333 10.6,5.33333333 10.4666667,5 C10.0666667,3.6 8.8,2.66666667 7.33333333,2.66666667 C5.46666667,2.66666667 4,4.13333333 4,6 C4,6.4 3.73333333,6.66666667 3.33333333,6.66666667 Z M12,12 C11.6,12 11.3333333,11.7333333 11.3333333,11.3333333 C11.3333333,10.9333333 11.6,10.6666667 12,10.6666667 C13.4666667,10.6666667 14.6666667,9.46666666 14.6666667,8 C14.6666667,6.53333331 13.4666667,5.33333331 12,5.33333331 C11.8,5.33333331 11.5333333,5.33333331 11.3333333,5.39999998 C11,5.46666666 10.6,5.26666666 10.5333333,4.93333331 C10.4666667,4.59999997 10.6666667,4.19999998 11,4.13333331 C11.3333333,4.06666667 11.6666667,4 12,4 C14.2,4 16,5.8 16,8 C16,10.2 14.2,12 12,12 Z M5.33333333,12 L3.33333333,12 C2.93333333,12 2.66666666,11.7333333 2.66666666,11.3333333 C2.66666666,10.9333333 2.93333333,10.6666667 3.33333333,10.6666667 L5.33333333,10.6666667 C5.73333333,10.6666667 6,10.9333333 6,11.3333333 C6,11.7333333 5.73333333,12 5.33333333,12 Z M12,12 L10.6666667,12 C10.2666667,12 10,11.7333333 10,11.3333333 C10,10.9333333 10.2666667,10.6666667 10.6666667,10.6666667 L12,10.6666667 C12.4,10.6666667 12.6666667,10.9333333 12.6666667,11.3333333 C12.6666667,11.7333333 12.4,12 12,12 Z M3.33333333,12 C1.46666666,12 0,10.5333333 0,8.66666667 C0,6.80000002 1.46666667,5.33333334 3.33333333,5.33333334 C3.73333333,5.33333334 4,5.60000002 4,6.00000002 C4,6.40000002 3.73333333,6.66666669 3.33333333,6.66666669 C2.2,6.66666669 1.33333333,7.53333336 1.33333333,8.66666669 C1.33333333,9.80000002 2.2,10.6666667 3.33333333,10.6666667 C3.73333333,10.6666667 4,10.9333334 4,11.3333333 C4,11.7333334 3.73333333,12 3.33333333,12 Z M8,14.6666667 C7.6,14.6666667 7.33333333,14.4 7.33333333,14 L7.33333333,7.33333333 C7.33333333,6.93333333 7.6,6.66666666 8,6.66666666 C8.4,6.66666666 8.66666667,6.93333333 8.66666667,7.33333333 L8.66666667,14 C8.66666667,14.4 8.4,14.6666667 8,14.6666667 Z M6,10 C5.8,10 5.66666667,9.93333333 5.53333333,9.8 C5.26666666,9.53333333 5.26666666,9.13333333 5.53333333,8.86666667 L7.53333333,6.86666667 C7.8,6.6 8.2,6.6 8.46666666,6.86666667 C8.73333331,7.13333334 8.73333333,7.53333334 8.46666666,7.8 L6.46666666,9.8 C6.33333332,9.93333333 6.2,10 6,10 Z M10,10 C9.8,10 9.66666667,9.93333333 9.53333333,9.8 L7.53333333,7.8 C7.26666666,7.53333333 7.26666666,7.13333333 7.53333333,6.86666667 C7.8,6.60000002 8.2,6.6 8.46666666,6.86666667 L10.4666667,8.86666667 C10.7333333,9.13333334 10.7333333,9.53333334 10.4666667,9.8 C10.3333333,9.93333333 10.2,10 10,10 Z" id="Shape"></path>
                </g>
            </g>
        </g>
    </g>
</svg>